<?xml version="1.0" encoding="utf-8"?>
<!-- Generator: Adobe Illustrator 16.0.0, SVG Export Plug-In . SVG Version: 6.00 Build 0)  -->
<svg version="1.2" baseProfile="tiny" id="Layer_1" xmlns:sketch="http://www.bohemiancoding.com/sketch/ns"
	 xmlns="http://www.w3.org/2000/svg" xmlns:xlink="http://www.w3.org/1999/xlink" x="0px" y="0px" width="574.473px"
	 height="571.082px" viewBox="0 0 574.473 571.082" xml:space="preserve">
<path d="M489.154,420.152L354.543,285.541L489.154,150.93c18.585-18.585,18.584-48.722,0-67.306
	c-18.587-18.586-48.722-18.585-67.307,0L287.236,218.235L152.625,83.624c-18.585-18.586-48.72-18.586-67.306,0
	c-18.584,18.584-18.586,48.72,0,67.306L219.93,285.541L85.319,420.152c-18.585,18.585-18.586,48.72,0,67.307
	c18.584,18.584,48.721,18.585,67.306,0l134.611-134.611l134.611,134.611c18.585,18.585,48.722,18.584,67.307,0
	C507.74,468.872,507.739,438.737,489.154,420.152z"/>
</svg>
