<?xml version="1.0" encoding="utf-8"?>
<!-- Generator: Adobe Illustrator 16.0.0, SVG Export Plug-In . SVG Version: 6.00 Build 0)  -->
<svg version="1.2" baseProfile="tiny" id="Layer_1" xmlns:sketch="http://www.bohemiancoding.com/sketch/ns"
	 xmlns="http://www.w3.org/2000/svg" xmlns:xlink="http://www.w3.org/1999/xlink" x="0px" y="0px" width="574.473px"
	 height="571.082px" viewBox="0 0 574.473 571.082" xml:space="preserve">
<path d="M1.695,285.207C1.81,127.805,130.027-0.12,287.555,0c157.377,0.117,285.404,128.431,285.223,285.86
	c-0.188,157.417-128.408,285.344-285.879,285.222C129.52,570.96,1.577,442.716,1.695,285.207z M536.111,285.44
	C536.007,148.093,424.281,36.657,286.7,36.667C150.187,36.681,38.047,148.966,38.362,285.331
	c0.316,137.746,111.86,249.28,249.094,249.083C424.566,534.221,536.213,422.43,536.111,285.44z"/>
<path d="M395.717,357.861l-72.32-72.32l72.32-72.32c9.985-9.985,9.984-26.176,0-36.161c-9.985-9.985-26.175-9.985-36.16,0
	l-72.32,72.32l-72.32-72.32c-9.985-9.985-26.175-9.985-36.161,0c-9.984,9.984-9.985,26.175,0,36.161l72.32,72.32l-72.32,72.32
	c-9.985,9.985-9.985,26.175,0,36.16c9.985,9.984,26.175,9.985,36.161,0l72.32-72.32l72.32,72.32c9.985,9.985,26.176,9.984,36.16,0
	C405.703,384.036,405.702,367.847,395.717,357.861z"/>
</svg>
