<?xml version="1.0" encoding="utf-8"?>
<!-- Generator: Adobe Illustrator 16.0.0, SVG Export Plug-In . SVG Version: 6.00 Build 0)  -->
<svg version="1.2" baseProfile="tiny" id="Layer_1" xmlns:sketch="http://www.bohemiancoding.com/sketch/ns"
	 xmlns="http://www.w3.org/2000/svg" xmlns:xlink="http://www.w3.org/1999/xlink" x="0px" y="0px" width="574.473px"
	 height="571.082px" viewBox="0 0 574.473 571.082" xml:space="preserve">
<path d="M546.556,265.925l-68.303-68.47c-5.115-5.112-11.011-7.635-18.158-7.635c-15.996,0-26.743,13.667-26.743,26.549
	c0,7.146,2.426,12.094,7.666,17.271l24.127,23.238l-149.3,0.028l-0.029-149.239l23.338,24.088
	c5.114,5.244,10.622,7.802,17.636,7.802c12.91,0,26.415-10.75,26.415-26.581c0-7.113-2.62-13.11-7.864-18.19l-68.438-68.47
	c-4.588-4.981-9.832-9.275-19.664-9.275c-9.836,0-14.096,3.475-19.47,8.85l-68.631,68.698c-5.244,5.08-7.739,11.045-7.739,18.158
	c0,15.929,13.639,26.678,26.618,26.678c7.079,0,12.06-2.555,17.304-7.734l23.272-24.024v149.25l-149.264,0.028l24.123-23.238
	c5.244-5.179,7.8-10.62,7.8-17.733c0-12.879-10.751-26.385-26.679-26.385c-7.083,0-13.112,2.622-18.158,7.866l-68.47,68.405
	c-4.916,4.688-9.208,9.865-9.208,19.665c0,9.799,3.475,14.094,8.848,19.469l68.631,68.633c5.115,5.244,11.145,7.734,18.223,7.734
	c15.931,0,26.682-13.635,26.682-26.613c0-7.078-2.559-12.062-7.734-17.307l-24.059-23.27h149.264v149.277l-23.143-24.188
	c-5.24-5.179-10.748-7.736-17.761-7.736c-12.914,0-26.419,10.883-26.419,26.745c0,6.949,2.624,13.178,7.734,18.225l68.765,68.764
	c5.309,5.309,9.634,8.783,19.47,8.783c9.698,0,14.942-4.325,19.6-9.176l68.502-68.371c5.11-5.047,7.601-10.947,7.601-18.093
	c0-15.994-13.635-26.745-26.613-26.745c-7.078,0-12.06,2.426-17.174,7.67l-23.269,24.123l-0.029-149.277h149.289l-24.192,23.139
	c-5.175,5.244-7.734,10.752-7.734,17.766c0,12.914,10.881,26.416,26.747,26.416c6.949,0,13.173-2.621,18.288-7.734l68.7-68.764
	c5.309-5.311,8.783-9.67,8.783-19.469C555.736,275.856,551.407,270.677,546.556,265.925z"/>
</svg>
