<?xml version="1.0" encoding="utf-8"?>
<!-- Generator: Adobe Illustrator 16.0.0, SVG Export Plug-In . SVG Version: 6.00 Build 0)  -->
<svg version="1.2" baseProfile="tiny" id="Layer_1" xmlns:sketch="http://www.bohemiancoding.com/sketch/ns"
	 xmlns="http://www.w3.org/2000/svg" xmlns:xlink="http://www.w3.org/1999/xlink" x="0px" y="0px" width="574.473px"
	 height="571.082px" viewBox="0 0 574.473 571.082" xml:space="preserve">
<g id="Page-1" sketch:type="MSPage">
	<g id="LISTAGEM02_full_cards_aberto" transform="translate(-308.000000, -740.000000)" sketch:type="MSArtboardGroup">
		<g id="MIOLO_CARDS" transform="translate(110.000000, 353.000000)" sketch:type="MSLayerGroup">
			<g id="CARD01" transform="translate(0.000000, 63.000000)" sketch:type="MSShapeGroup">
				<g id="BTS" transform="translate(17.000000, 307.000000)">
					<g id="icon_window" transform="translate(181.000000, 17.000000)">
						<g id="Group" transform="translate(0.839506, 0.000000)">
							<path id="Shape" d="M531.225,235.522c-11.15,0-20.24,9.092-20.24,20.361v138.355H178.011V59.225h142.473
								c11.217,0,20.274-9.09,20.274-20.36c0-11.287-9.058-20.378-20.274-20.378H157.771c-11.219,0-20.259,9.092-20.259,20.378
								v97.171H40.924c-11.201,0-20.24,9.159-20.24,20.378v375.803c0,11.185,9.04,20.379,20.24,20.379h373.454
								c11.185,0,20.24-9.194,20.24-20.379V434.96h96.606c11.183,0,20.24-9.09,20.24-20.377V255.884
								C551.465,244.614,542.408,235.522,531.225,235.522L531.225,235.522z M394.138,511.84H61.181V176.774h76.331v237.809
								c0,11.287,9.04,20.377,20.259,20.377h236.367V511.84L394.138,511.84z"/>
							<g id="Shape_1_" transform="translate(8.227160, 0.000000)">
								<path d="M543.238,38.865v119.573c0,11.201-9.058,20.377-20.24,20.377c-11.15,0-20.24-9.176-20.24-20.377V88.025
									L337.573,254.254c-3.979,3.945-9.159,5.987-14.305,5.987c-5.214,0-10.395-2.042-14.306-5.987
									c-7.993-7.941-7.993-20.84,0-28.851L474.11,59.225h-69.914c-11.218,0-20.275-9.09-20.275-20.36
									c0-11.287,9.058-20.378,20.275-20.378h118.802c1.27,0,2.537,0.138,3.842,0.344c1.27,0.273,2.539,0.668,3.774,1.148
									c0.616,0.275,1.233,0.549,1.749,0.806c1.817,0.96,3.464,2.178,4.939,3.671c2.95,2.985,4.837,6.656,5.593,10.532
									c0.137,0.686,0.206,1.354,0.273,2.042c0.069,0.067,0.069,0.067,0,0.137C543.238,37.767,543.238,38.315,543.238,38.865
									L543.238,38.865z"/>
								<path d="M543.615,38.899v2.007c0.411-1.252,0.411-2.487-0.446-3.74C543.615,37.784,543.615,38.333,543.615,38.899
									L543.615,38.899z"/>
							</g>
						</g>
					</g>
				</g>
			</g>
		</g>
	</g>
</g>
</svg>
