<?xml version="1.0" encoding="utf-8"?>
<!-- Generator: Adobe Illustrator 16.0.0, SVG Export Plug-In . SVG Version: 6.00 Build 0)  -->
<svg version="1.2" baseProfile="tiny" id="Layer_1" xmlns:sketch="http://www.bohemiancoding.com/sketch/ns"
	 xmlns="http://www.w3.org/2000/svg" xmlns:xlink="http://www.w3.org/1999/xlink" x="0px" y="0px" width="574.473px"
	 height="571.082px" viewBox="0 0 574.473 571.082" xml:space="preserve">
<path fill-rule="evenodd" d="M214.192,285.466c0-30.431,0-60.862,0-91.292c0-1.69-0.033-3.384,0.028-5.072
	c0.48-12.973,9.678-18.492,21.184-12.332c9.824,5.256,19.347,11.07,28.974,16.686c44.497,25.953,88.979,51.924,133.465,77.89
	c0.73,0.424,1.479,0.822,2.195,1.269c11.972,7.521,12.099,18.664-0.155,25.852c-54.345,31.865-108.76,63.604-163.24,95.237
	c-12.768,7.413-22.399,1.531-22.432-13.396C214.15,348.694,214.197,317.079,214.192,285.466z"/>
<path fill-rule="evenodd" d="M27.536,285.237C27.64,142.079,144.255,25.732,287.526,25.841
	c143.135,0.106,259.576,116.808,259.411,259.99c-0.17,143.17-116.789,259.521-260.009,259.41
	C143.793,545.131,27.428,428.492,27.536,285.237z M513.588,285.449C513.493,160.531,411.879,59.18,286.749,59.189
	C162.589,59.202,60.598,161.325,60.885,285.35c0.288,125.281,101.737,226.721,226.552,226.542
	C412.138,511.716,513.682,410.042,513.588,285.449z"/>
</svg>
