<?xml version="1.0" encoding="utf-8"?>
<!-- Generator: Adobe Illustrator 16.0.0, SVG Export Plug-In . SVG Version: 6.00 Build 0)  -->
<svg version="1.2" baseProfile="tiny" id="Layer_1" xmlns:sketch="http://www.bohemiancoding.com/sketch/ns"
	 xmlns="http://www.w3.org/2000/svg" xmlns:xlink="http://www.w3.org/1999/xlink" x="0px" y="0px" width="574.473px"
	 height="571.082px" viewBox="0 0 574.473 571.082" xml:space="preserve">
<path d="M206.923,285.458c0-33.458,0-66.918,0-100.375c0-1.859-0.036-3.721,0.031-5.577c0.528-14.264,10.641-20.332,23.292-13.56
	c10.802,5.779,21.272,12.171,31.857,18.346c48.924,28.536,97.832,57.091,146.745,85.641c0.803,0.466,1.626,0.903,2.414,1.395
	c13.163,8.27,13.302,20.521-0.171,28.424c-59.753,35.035-119.582,69.933-179.483,104.714c-14.039,8.151-24.627,1.684-24.665-14.73
	C206.877,354.979,206.93,320.217,206.923,285.458z"/>
<path d="M1.695,285.207C1.81,127.805,130.027-0.12,287.555,0c157.378,0.117,285.404,128.431,285.223,285.86
	c-0.187,157.416-128.408,285.344-285.879,285.222C129.52,570.96,1.577,442.716,1.695,285.207z M536.111,285.44
	C536.007,148.093,424.281,36.657,286.7,36.667C150.187,36.681,38.047,148.966,38.362,285.331
	c0.316,137.746,111.86,249.28,249.094,249.083C424.566,534.221,536.213,422.43,536.111,285.44z"/>
</svg>
