<?xml version="1.0" encoding="utf-8"?>
<!-- Generator: Adobe Illustrator 16.0.0, SVG Export Plug-In . SVG Version: 6.00 Build 0)  -->
<svg version="1.2" baseProfile="tiny" id="Layer_1" xmlns:sketch="http://www.bohemiancoding.com/sketch/ns"
	 xmlns="http://www.w3.org/2000/svg" xmlns:xlink="http://www.w3.org/1999/xlink" x="0px" y="0px" width="574.473px"
	 height="571.082px" viewBox="0 0 574.473 571.082" xml:space="preserve">
<path d="M504.585,240.071H332.706V68.193c0-25.111-20.359-45.47-45.47-45.47c-25.113,0-45.47,20.359-45.47,45.47v171.878H69.888
	c-25.112,0-45.47,20.357-45.47,45.47c0,25.11,20.358,45.47,45.47,45.47h171.878V502.89c0,25.11,20.357,45.47,45.47,45.47
	c25.11,0,45.47-20.359,45.47-45.47V331.011h171.879c25.11,0,45.47-20.359,45.47-45.47
	C550.055,260.428,529.695,240.071,504.585,240.071z"/>
</svg>
