<?xml version="1.0" encoding="utf-8"?>
<!-- Generator: Adobe Illustrator 16.0.0, SVG Export Plug-In . SVG Version: 6.00 Build 0)  -->
<svg version="1.2" baseProfile="tiny" id="Layer_1" xmlns:sketch="http://www.bohemiancoding.com/sketch/ns"
	 xmlns="http://www.w3.org/2000/svg" xmlns:xlink="http://www.w3.org/1999/xlink" x="0px" y="0px" width="574.473px"
	 height="571.082px" viewBox="0 0 574.473 571.082" xml:space="preserve">
<g id="qm9hBb_1_">
	<g>
		<path d="M416.539,341.961c1.784,1.238,3.569,2.54,5.079,3.983c45.574,45.57,90.945,91.012,136.311,136.52
			c13.593,13.585,13.659,28.413,0.274,41.936c-10.979,10.843-21.824,21.757-32.668,32.534c-12.905,12.902-27.938,12.969-40.77,0.204
			c-45.574-45.575-91.148-91.22-136.727-136.79c-1.647-1.647-2.812-3.64-4.256-5.632c-57.928,34.182-118.122,42.691-181.507,23.268
			c-50.757-15.581-90.945-46.053-119.84-90.875C-16.969,255.48-1.833,137.459,78.127,62.886
			c77.182-72.034,196.61-78.177,282.199-14.688C446.329,111.961,480.373,236.914,416.539,341.961z M375.906,226.173
			C375.769,144.701,309.605,78.33,228.203,78.33c-81.678-0.069-147.879,66.234-147.879,148.049
			c0.067,81.712,66.338,147.982,148.083,147.638C309.743,374.017,375.906,307.542,375.906,226.173z"/>
	</g>
</g>
</svg>
