<?xml version="1.0" encoding="utf-8"?>
<!-- Generator: Adobe Illustrator 16.0.0, SVG Export Plug-In . SVG Version: 6.00 Build 0)  -->
<svg version="1.2" baseProfile="tiny" id="Layer_1" xmlns:sketch="http://www.bohemiancoding.com/sketch/ns"
	 xmlns="http://www.w3.org/2000/svg" xmlns:xlink="http://www.w3.org/1999/xlink" x="0px" y="0px" width="574.473px"
	 height="571.082px" viewBox="0 0 574.473 571.082" xml:space="preserve">
<g>
	<g>
		<path d="M251.859,96.137c0,86.989,0,173.518,0,260.37c23.769,0,47.124,0,70.709,0c0-86.897,0-173.519,0-260.37
			C298.982,96.137,275.675,96.137,251.859,96.137z"/>
		<path d="M322.568,404.186c-24.048,0-47.401,0-70.757,0c0,23.864,0,47.219,0,70.805c23.864,0,47.171,0,70.757,0
			C322.568,451.22,322.568,427.772,322.568,404.186z"/>
	</g>
	<g>
		<path d="M287.237,27.461c6.334,0,12.301,2.474,16.741,6.914l234.379,234.424c9.249,9.226,9.249,24.256,0,33.483L303.978,536.684
			c-4.439,4.44-10.406,6.938-16.741,6.938c-6.335,0-12.301-2.497-16.742-6.938L36.048,302.282
			c-4.44-4.464-6.914-10.429-6.914-16.719c0-6.289,2.474-12.254,6.914-16.765L270.495,34.375
			C274.982,29.935,280.947,27.461,287.237,27.461 M287.237,3.783c-12.117,0-24.233,4.602-33.483,13.827L19.33,252.036
			c-18.499,18.521-18.499,48.443,0,66.965l234.424,234.424c9.25,9.251,21.413,13.874,33.528,13.874
			c12.118,0,24.279-4.623,33.482-13.874l234.378-234.424c18.499-18.522,18.499-48.445,0-66.965L320.765,17.609
			C311.562,8.384,299.353,3.783,287.237,3.783L287.237,3.783z"/>
	</g>
</g>
</svg>
